<?xml version="1.0" standalone="no"?>
<!DOCTYPE svg PUBLIC "-//W3C//DTD SVG 20010904//EN"
 "http://www.w3.org/TR/2001/REC-SVG-20010904/DTD/svg10.dtd">
<svg version="1.0" xmlns="http://www.w3.org/2000/svg"
 width="686.000000pt" height="1000.000000pt" viewBox="0 0 686.000000 1000.000000"
 preserveAspectRatio="xMidYMid meet">

<g transform="translate(0.000000,1000.000000) scale(0.100000,-0.100000)"
fill="#000000" stroke="none">
<path d="M0 5000 l0 -5000 3430 0 3430 0 0 5000 0 5000 -3430 0 -3430 0 0
-5000z m2327 4198 c26 -32 96 -291 168 -613 19 -88 47 -203 60 -255 14 -52 24
-113 23 -135 l-3 -40 -48 -3 c-56 -4 -50 -13 -92 153 -17 66 -36 119 -42 118
-5 -1 -44 -6 -85 -11 -90 -12 -118 -25 -118 -56 0 -40 -32 -170 -46 -183 -7
-7 -15 -32 -19 -55 -14 -90 -26 -116 -54 -120 -45 -6 -71 2 -71 22 0 21 31
182 54 280 8 36 12 68 8 72 -4 3 -23 8 -42 10 -48 4 -44 20 10 38 25 8 46 15
47 15 3 2 26 119 48 250 23 134 101 501 109 514 10 15 81 14 93 -1z m1339 -85
c5 -49 9 -278 9 -510 l0 -422 25 5 c14 3 64 17 112 30 107 31 193 30 193 -1 0
-22 -32 -33 -179 -66 -105 -22 -258 -26 -274 -6 -13 16 -10 750 3 780 4 11 5
65 1 123 -4 57 -4 115 0 129 6 22 11 25 54 25 l48 0 8 -87z m908 43 c52 -124
95 -282 106 -389 10 -87 33 -200 90 -432 16 -66 30 -138 32 -160 3 -40 3 -40
-36 -43 -21 -2 -43 1 -48 6 -5 5 -18 52 -28 104 -24 122 -44 171 -67 164 -10
-3 -56 -10 -103 -17 -47 -7 -89 -15 -93 -19 -4 -4 -17 -49 -28 -101 -29 -141
-68 -292 -78 -302 -5 -5 -25 -5 -46 -1 l-38 7 6 76 c3 43 15 118 27 169 27
122 27 120 -17 124 -30 2 -38 7 -38 23 0 15 11 23 46 32 l47 14 16 92 c8 50
18 115 22 142 3 28 12 79 19 115 8 36 28 142 46 235 18 94 38 177 45 185 9 11
26 14 59 12 41 -4 48 -8 59 -36z m906 -1 c0 -135 -174 -793 -214 -808 -7 -3
-37 -2 -67 1 l-54 7 -22 115 c-42 215 -45 224 -53 209 -4 -8 -13 -70 -20 -139
-13 -141 -45 -349 -61 -397 -10 -32 -12 -33 -65 -33 -67 0 -70 7 -50 92 17 71
32 171 41 268 4 36 11 92 16 125 5 33 18 136 29 229 12 111 23 172 32 178 14
9 114 6 124 -5 3 -3 10 -20 14 -39 5 -18 22 -78 39 -133 17 -55 36 -121 42
-147 11 -48 29 -65 29 -28 0 11 4 20 10 20 12 0 31 66 75 270 19 91 38 176 41
190 11 50 32 70 74 70 l40 0 0 -45z m-3820 19 c91 -20 234 -71 255 -90 37 -34
35 -122 -4 -209 -29 -64 -131 -179 -190 -216 l-25 -15 48 -110 c119 -273 185
-433 195 -474 7 -25 19 -61 27 -81 9 -20 14 -47 12 -60 -2 -20 -10 -25 -39
-27 -23 -2 -43 3 -57 15 -25 21 -122 253 -122 292 0 14 -30 96 -66 181 -36 85
-73 172 -82 193 -8 21 -20 36 -26 34 -7 -2 -16 -70 -23 -173 -7 -93 -16 -187
-20 -209 -8 -38 -11 -40 -51 -43 -50 -4 -48 -22 -27 208 7 91 17 273 20 405 4
132 8 266 9 298 2 31 0 60 -5 63 -5 3 -9 12 -9 21 0 13 11 14 77 9 43 -4 89
-9 103 -12z m-556 -3 c3 -4 30 -11 59 -14 64 -6 121 -33 162 -77 25 -26 27
-33 15 -41 -23 -15 -66 -3 -130 37 -104 64 -185 65 -283 2 -112 -71 -163 -179
-182 -379 -11 -118 31 -283 92 -363 49 -63 132 -109 182 -100 80 13 169 80
219 164 30 51 38 164 15 210 l-18 35 -127 5 c-69 3 -129 8 -133 12 -22 22 17
28 175 28 l170 0 30 -28 c27 -23 33 -37 41 -102 22 -173 -30 -288 -160 -352
-41 -21 -61 -23 -191 -23 -134 0 -149 2 -195 25 -63 31 -136 103 -168 167 -24
47 -67 234 -67 291 0 43 46 235 65 273 59 118 146 197 244 224 53 15 177 19
185 6z m3040 -103 c3 -18 8 -114 11 -213 4 -99 15 -283 25 -410 18 -229 18
-230 -2 -247 -30 -26 -89 -23 -109 5 -20 27 -36 151 -22 170 5 7 6 80 2 177
-12 272 -15 524 -6 538 5 6 28 12 52 12 42 0 44 -2 49 -32z m-768 -4 c20 -5
21 -16 33 -227 6 -122 18 -304 27 -403 8 -100 14 -203 12 -230 l-3 -49 -52 -3
c-47 -3 -54 0 -70 24 -15 23 -17 54 -18 233 -1 113 -5 298 -10 411 -10 251 -5
267 81 244z m-238 -85 c37 -29 56 -70 47 -98 -5 -17 -15 -21 -45 -21 -33 0
-41 5 -60 35 -42 67 -78 78 -166 48 -72 -25 -141 -99 -179 -193 -26 -66 -30
-87 -29 -171 0 -108 8 -134 70 -230 57 -88 139 -141 192 -124 11 3 51 28 88
55 55 42 74 50 110 50 117 0 10 -125 -129 -150 -83 -16 -214 0 -269 33 -193
114 -253 354 -144 583 75 158 183 216 388 210 84 -2 100 -6 126 -27z m600 -83
c16 -130 15 -171 -13 -321 l-25 -130 5 199 c3 110 5 232 5 273 0 40 4 73 8 73
5 0 14 -42 20 -94z m961 -14 c7 -35 28 -100 47 -144 27 -63 32 -83 22 -90 -7
-4 -16 -8 -20 -8 -6 0 -78 288 -78 312 0 31 19 -14 29 -70z m1221 64 c0 -8 15
-17 38 -21 98 -18 200 -91 247 -177 26 -47 29 -65 33 -166 4 -105 3 -119 -22
-181 -44 -111 -118 -170 -242 -191 -92 -16 -262 -10 -278 11 -6 8 -30 23 -54
33 -48 22 -127 101 -147 149 -7 17 -19 66 -26 107 -33 198 77 388 251 436 65
18 200 18 200 0z m-3950 -111 c0 -18 -32 -64 -54 -79 -32 -20 -58 -21 -29 -1
12 8 31 31 43 50 19 30 40 46 40 30z m2031 -117 c-2 -140 -10 -198 -28 -198
-11 0 -12 11 -8 48 12 102 25 228 25 246 0 11 3 17 6 13 4 -3 6 -52 5 -109z
m-1222 -175 c8 -54 16 -114 18 -133 l4 -35 -30 33 c-26 27 -31 41 -31 80 0 64
11 152 19 152 4 0 13 -44 20 -97z m2623 -68 c-15 -130 -19 -150 -36 -153 -37
-8 -38 13 -7 129 65 241 68 242 43 24z m-3753 -362 c1 -22 -3 -23 -64 -23 -36
0 -65 2 -65 4 0 3 25 10 55 16 50 10 55 14 56 38 0 24 1 25 9 7 5 -11 9 -30 9
-42z m4361 53 c0 -2 -23 -16 -51 -31 -48 -25 -55 -26 -100 -15 -26 7 -53 18
-60 26 -14 17 -11 17 27 4 22 -8 46 -7 89 4 62 15 95 19 95 12z m-1020 -95 c0
-32 -14 -41 -61 -41 -42 0 -49 3 -49 19 0 14 8 21 28 24 52 8 82 7 82 -2z
m-1794 -94 c9 -9 81 -228 99 -302 10 -38 18 -95 20 -125 2 -57 37 -224 85
-415 50 -198 49 -205 -12 -205 -36 0 -53 28 -66 106 -19 110 -42 175 -60 170
-9 -2 -51 -10 -92 -16 -120 -18 -118 -17 -125 -52 -31 -156 -80 -355 -90 -366
-8 -9 -24 -11 -49 -7 -34 7 -36 9 -36 45 0 21 11 100 25 174 14 74 25 140 25
146 0 5 -11 10 -24 10 -34 0 -56 10 -56 24 0 15 42 36 71 36 26 0 33 21 53
160 10 63 37 220 62 348 24 128 44 237 44 243 0 5 8 17 19 28 15 15 26 17 60
11 23 -4 44 -10 47 -13z m-584 -36 c221 -57 272 -85 282 -153 19 -125 -88
-309 -239 -413 -30 -21 -55 -40 -55 -42 0 -2 6 -16 14 -32 23 -43 213 -500
277 -666 l59 -150 -21 -17 c-12 -10 -29 -18 -39 -18 -24 0 -67 36 -76 63 -4
12 -65 162 -137 332 -71 171 -140 338 -154 373 -14 34 -28 62 -33 62 -12 0
-20 -66 -20 -167 0 -104 -15 -229 -35 -288 -13 -39 -14 -40 -63 -43 -64 -4
-67 5 -53 141 26 241 34 379 38 660 3 163 9 297 14 297 16 0 10 60 -6 66 -32
13 -1 24 65 24 43 0 110 -11 182 -29z m1444 -99 c16 -10 32 -71 59 -232 52
-296 67 -379 115 -612 28 -134 60 -276 71 -316 11 -41 18 -80 15 -88 -3 -9
-20 -14 -45 -14 -31 0 -44 5 -55 23 -32 49 -134 505 -187 835 -12 78 -26 142
-29 142 -4 0 -15 -33 -25 -72 -28 -117 -64 -226 -81 -243 -16 -16 -99 -21
-121 -7 -6 4 -30 58 -54 120 -23 62 -44 110 -47 107 -4 -3 -7 -36 -7 -73 -5
-324 -19 -709 -28 -719 -13 -18 -68 -16 -95 3 -22 15 -22 19 -22 237 0 222 17
793 25 833 6 26 35 35 92 27 42 -6 46 -9 72 -62 16 -31 45 -99 65 -151 20 -52
44 -110 53 -129 l17 -33 13 48 c7 27 29 121 49 209 20 88 38 163 40 167 6 10
95 10 110 0z m114 -175 c17 -59 30 -115 30 -125 0 -22 -17 -48 -25 -40 -9 9
-53 266 -47 273 9 8 11 3 42 -108z m1300 63 c0 -5 8 -10 18 -10 28 -1 105 -39
135 -67 69 -67 2 -71 -128 -7 -86 43 -96 45 -127 35 -77 -27 -123 -101 -121
-194 3 -92 28 -131 170 -264 154 -144 179 -187 170 -290 -12 -124 -98 -231
-205 -254 -71 -14 -204 -7 -257 15 -54 23 -79 49 -95 97 -17 49 -6 72 35 77
52 6 71 -5 89 -53 32 -81 102 -113 172 -77 113 58 165 201 113 309 -14 29 -53
71 -118 127 -166 143 -189 177 -197 295 -5 70 -3 84 20 132 38 79 71 110 136
130 38 11 190 11 190 -1z m-367 -27 c4 -3 2 -12 -4 -19 -6 -8 -14 -46 -18 -86
l-6 -73 -21 75 -21 75 26 17 c29 20 35 21 44 11z m-377 -128 c9 -8 26 -15 38
-15 43 0 144 -60 195 -116 63 -69 81 -124 81 -251 0 -114 -31 -204 -93 -266
-71 -71 -109 -82 -290 -82 -105 0 -160 4 -165 11 -4 6 -23 19 -42 29 -98 50
-152 123 -176 236 -27 128 0 252 77 349 39 49 67 69 144 102 54 23 210 25 231
3z m-2435 -468 c-15 -39 -31 -34 -21 6 4 17 12 55 17 82 l8 50 3 -56 c2 -30
-2 -67 -7 -82z m1405 -25 c-6 -63 -4 -86 9 -113 15 -32 15 -39 -9 -124 l-25
-90 0 60 c-2 125 12 345 22 345 6 0 7 -30 3 -78z m-1432 -154 c-8 -26 -18 -48
-21 -48 -6 0 2 74 14 140 l7 35 8 -39 c6 -29 4 -53 -8 -88z m300 -139 c8 -30
18 -62 21 -71 7 -16 -2 -18 -96 -18 -56 0 -100 2 -97 5 2 3 29 9 59 15 59 11
79 29 79 71 0 29 10 63 16 56 3 -2 11 -28 18 -58z m2216 27 c0 -2 -15 -14 -34
-25 -23 -15 -50 -21 -89 -21 -55 0 -115 15 -104 26 13 14 227 32 227 20z
m-2495 -505 c3 -11 14 -23 24 -26 15 -4 91 -138 91 -160 0 -8 38 -90 91 -198
40 -82 41 -95 9 -115 -17 -10 -24 -9 -41 7 -11 10 -28 34 -37 52 l-17 34 -130
3 -131 3 -12 -34 c-28 -78 -87 -86 -72 -9 4 20 28 91 53 157 25 66 57 154 72
196 19 54 34 80 53 92 35 21 39 21 47 -2z m-1567 -70 c34 -49 69 -99 209 -296
l31 -44 52 107 c29 59 66 135 82 169 22 44 37 63 54 67 26 7 44 1 44 -14 0 -5
-34 -80 -75 -166 -42 -87 -85 -180 -97 -208 -38 -93 -77 -104 -122 -35 -14 21
-26 42 -26 45 0 4 -17 30 -39 58 -21 28 -47 65 -57 81 -10 17 -41 66 -70 110
-75 117 -94 158 -79 178 7 9 15 14 18 10 4 -3 7 -1 7 7 0 20 25 -5 68 -69z
m1069 39 c55 -16 115 -73 131 -126 44 -149 -23 -278 -189 -363 -97 -50 -103
-47 -123 57 -21 106 -33 202 -41 306 -3 43 -8 82 -11 87 -2 5 2 19 10 31 14
21 22 23 97 21 45 0 102 -7 126 -13z m1050 -26 c11 -10 8 -16 -14 -32 -16 -10
-40 -22 -54 -25 -29 -7 -60 -66 -52 -98 3 -9 33 -31 66 -48 74 -37 90 -49 106
-79 51 -96 -122 -249 -230 -204 -14 6 -15 12 -5 42 9 29 17 36 41 38 53 5 75
12 95 32 38 38 26 57 -55 96 -63 30 -78 42 -91 72 -21 49 -12 105 23 156 48
69 128 93 170 50z m-1407 -19 c8 -21 16 -106 37 -410 4 -59 3 -60 -28 -74 -23
-10 -33 -11 -38 -2 -7 11 -33 204 -51 380 -9 94 -9 105 7 117 29 22 62 17 73
-11z m2257 -219 c13 4 30 1 38 -6 8 -6 18 -9 23 -6 10 6 38 -21 30 -29 -2 -3
-38 -7 -79 -10 -94 -7 -155 -18 -151 -28 1 -4 2 -35 2 -70 l0 -63 63 4 c73 5
126 -7 141 -31 18 -28 -6 -38 -108 -44 l-97 -6 3 -76 3 -76 87 4 c75 3 89 1
94 -14 4 -9 13 -14 20 -11 7 3 16 1 19 -4 15 -24 -248 -73 -297 -55 -10 4 -12
52 -10 242 2 221 4 239 22 257 22 23 100 36 144 24 16 -4 40 -5 53 -2z m952
-12 c19 -15 54 -74 92 -152 76 -156 119 -251 119 -263 0 -15 -54 -33 -58 -19
-2 5 -9 16 -15 23 -7 7 -21 31 -33 52 -12 25 -26 38 -35 36 -8 -2 -60 -5 -117
-5 l-103 -1 -18 -53 c-18 -51 -54 -102 -74 -102 -12 0 -47 39 -47 53 0 19 35
107 42 107 5 0 8 6 8 13 0 6 33 80 74 163 69 139 91 170 128 173 3 1 20 -11
37 -25z m-448 -23 c15 -12 33 -21 39 -21 7 0 8 -6 0 -19 -6 -12 -18 -18 -29
-16 -95 18 -109 17 -134 -6 -72 -71 -89 -137 -56 -225 24 -63 48 -83 110 -88
34 -2 56 4 98 26 42 23 56 26 62 16 14 -22 10 -37 -18 -67 -48 -49 -89 -64
-162 -59 -69 5 -131 36 -155 77 -40 67 -47 87 -53 141 -6 61 -4 68 37 150 16
32 89 91 133 109 33 13 99 4 128 -18z m-888 5 c26 -20 21 -36 -20 -52 -48 -20
-72 -50 -73 -91 0 -28 9 -39 68 -87 38 -30 76 -69 85 -87 14 -29 14 -37 1 -68
-20 -49 -38 -66 -93 -89 -56 -25 -131 -20 -131 7 0 30 17 43 66 52 48 9 89 40
81 63 -2 6 -18 20 -36 31 -54 33 -119 99 -127 129 -8 32 11 99 38 136 18 24
92 69 113 69 6 0 18 -6 28 -13z m1826 -2 c34 -7 43 -34 12 -34 -22 0 -71 -58
-71 -83 0 -32 22 -64 58 -83 107 -57 131 -159 53 -231 -51 -47 -123 -67 -178
-51 -48 14 -55 33 -21 62 15 14 35 19 69 17 38 -1 52 3 68 21 39 41 24 76 -46
112 -18 9 -44 37 -59 62 -22 38 -26 53 -21 94 7 59 21 83 61 103 37 19 36 19
75 11z m-2760 -2118 c28 -34 -36 -78 -89 -61 -25 8 -26 27 -2 47 33 30 73 36
91 14z m-1142 -1082 c-3 -3 -12 -4 -19 -1 -8 3 -5 6 6 6 11 1 17 -2 13 -5z
m123 -110 c0 -2 -9 0 -20 6 -11 6 -20 13 -20 16 0 2 9 0 20 -6 11 -6 20 -13
20 -16z m109 -81 c2 -2 0 -3 -5 -3 -5 0 -25 14 -44 31 l-35 30 40 -27 c22 -16
42 -29 44 -31z m2038 -1532 c33 -39 70 -91 83 -117 25 -51 37 -126 26 -168 -9
-35 -65 -75 -117 -84 -38 -7 -44 -11 -44 -31 0 -35 -23 -38 -27 -4 -3 24 -8
28 -47 35 -162 27 -166 189 -9 376 29 34 58 62 65 62 6 0 38 -31 70 -69z
m-283 -463 c15 -25 -3 -52 -38 -56 -20 -3 -26 -9 -26 -28 0 -14 -4 -22 -10
-19 -11 7 -14 108 -3 119 13 13 66 1 77 -16z m54 -39 c-10 -5 -18 -21 -18 -34
0 -14 -4 -25 -10 -25 -5 0 -10 16 -10 35 0 32 3 35 28 35 23 -1 24 -2 10 -11z
m42 -24 c0 -19 -4 -35 -10 -35 -5 0 -10 16 -10 35 0 19 5 35 10 35 6 0 10 -16
10 -35z m78 -9 c2 -25 0 -36 -7 -31 -6 3 -11 18 -11 31 0 31 -24 27 -28 -4 -5
-32 -22 -27 -22 6 0 36 8 44 40 40 21 -3 25 -9 28 -42z m82 34 c0 -6 -8 -10
-17 -8 -12 2 -18 -3 -18 -17 0 -13 6 -20 18 -19 21 2 23 -14 2 -22 -30 -12
-62 46 -38 69 10 11 53 8 53 -3z m40 -25 c0 -19 -4 -35 -10 -35 -5 0 -10 16
-10 35 0 19 5 35 10 35 6 0 10 -16 10 -35z m90 20 c16 -19 4 -52 -23 -61 -12
-4 -27 -14 -34 -23 -10 -13 -12 -6 -13 42 0 56 0 57 29 57 16 0 34 -7 41 -15z
m40 -20 c0 -19 -4 -35 -10 -35 -5 0 -10 16 -10 35 0 19 5 35 10 35 6 0 10 -16
10 -35z m80 24 c0 -6 -9 -8 -20 -4 -11 3 -20 2 -20 -3 0 -5 9 -12 21 -15 29
-8 21 -42 -10 -42 -14 0 -26 5 -28 12 -3 7 4 9 18 6 15 -4 20 -3 15 5 -4 7
-14 12 -22 12 -8 0 -14 9 -14 20 0 16 7 20 30 20 17 0 30 -5 30 -11z"/>
<path d="M2277 8883 c-29 -141 -66 -347 -69 -383 -2 -19 2 -35 7 -35 28 1 175
29 175 34 0 5 -18 82 -73 311 -6 25 -11 66 -11 92 -1 72 -12 66 -29 -19z"/>
<path d="M4496 8783 c-53 -280 -63 -343 -57 -347 13 -8 181 29 181 40 0 6 -12
56 -26 110 -26 103 -40 178 -50 277 -4 31 -10 57 -14 57 -4 0 -20 -62 -34
-137z"/>
<path d="M1590 8927 c0 -118 3 -216 6 -220 10 -9 55 18 88 52 17 17 35 31 42
31 14 0 66 77 89 132 16 39 20 115 7 135 -11 17 -183 83 -219 83 -10 0 -13
-49 -13 -213z"/>
<path d="M5754 8894 c-64 -34 -80 -49 -119 -109 -46 -71 -69 -156 -62 -230 12
-120 56 -197 149 -256 47 -30 60 -34 123 -34 59 0 77 5 118 29 58 34 111 98
132 156 22 62 14 234 -14 288 -31 61 -103 117 -192 152 -43 16 -80 30 -82 30
-2 0 -26 -12 -53 -26z"/>
<path d="M3150 7645 c0 -22 -6 -49 -14 -60 -11 -16 -34 -127 -69 -340 -2 -12
5 -12 106 -1 42 5 80 13 83 18 3 5 -5 53 -19 106 -14 53 -36 140 -48 192 -27
115 -38 140 -39 85z"/>
<path d="M2481 7655 c-3 -258 -3 -265 16 -265 28 0 104 62 159 129 59 71 94
150 101 224 5 51 3 61 -17 82 -13 14 -32 25 -43 25 -28 0 -97 22 -97 30 0 10
-75 40 -98 40 -16 0 -17 -22 -21 -265z"/>
<path d="M4553 7529 c-61 -30 -126 -105 -153 -175 -66 -176 -7 -355 144 -431
69 -35 161 -30 226 11 52 33 105 99 125 157 20 55 13 235 -10 280 -30 57 -100
115 -179 148 -88 37 -98 37 -153 10z"/>
<path d="M2256 6199 c-18 -54 -65 -187 -71 -201 -6 -16 1 -18 84 -18 99 0 103
3 75 55 -9 17 -25 55 -36 85 -27 70 -45 99 -52 79z"/>
<path d="M1645 6200 c-3 -5 -4 -14 -1 -18 3 -5 12 -68 20 -141 9 -73 19 -143
22 -156 6 -23 8 -24 33 -10 14 7 45 31 67 52 120 111 65 283 -92 283 -23 0
-46 -4 -49 -10z"/>
<path d="M4555 5838 c-40 -93 -40 -92 -25 -83 7 4 44 7 82 6 l69 -2 -37 71
c-20 38 -43 70 -49 70 -7 0 -25 -28 -40 -62z"/>
<path d="M2300 3839 c0 -14 5 -19 17 -17 26 5 29 38 4 38 -15 0 -21 -6 -21
-21z"/>
<path d="M3380 1045 c-49 -63 -98 -153 -105 -195 -11 -67 23 -113 100 -130
l35 -8 0 67 c-1 61 -3 68 -30 91 -17 13 -30 30 -30 37 0 21 27 15 44 -9 15
-22 16 -20 16 30 0 40 4 52 15 52 12 0 15 -17 15 -92 l0 -91 23 21 c24 22 47
29 47 13 0 -5 -16 -26 -35 -47 -44 -48 -45 -64 -2 -64 33 0 71 20 95 48 22 28
14 105 -15 161 -34 62 -112 161 -127 161 -6 -1 -27 -21 -46 -45z"/>
<path d="M3157 594 c-16 -16 -6 -35 16 -32 12 2 22 10 22 18 0 16 -26 25 -38
14z"/>
<path d="M3554 547 c-6 -17 2 -37 16 -37 15 0 19 29 5 40 -12 10 -16 9 -21 -3z"/>
</g>
</svg>
