<?xml version="1.0" standalone="no"?>
<!DOCTYPE svg PUBLIC "-//W3C//DTD SVG 20010904//EN"
 "http://www.w3.org/TR/2001/REC-SVG-20010904/DTD/svg10.dtd">
<svg version="1.0" xmlns="http://www.w3.org/2000/svg"
 width="1003.000000pt" height="1600.000000pt" viewBox="0 0 1003.000000 1600.000000"
 preserveAspectRatio="xMidYMid meet">

<g transform="translate(0.000000,1600.000000) scale(0.100000,-0.100000)"
fill="#000000" stroke="none">
<path d="M0 8000 l0 -8000 5015 0 5015 0 0 8000 0 8000 -5015 0 -5015 0 0
-8000z m2200 2982 c0 -13 -41 -54 -48 -48 -9 9 20 56 35 56 7 0 13 -4 13 -8z
m-1052 -69 c2 -9 -10 -13 -42 -13 -46 0 -46 0 -46 -35 0 -34 1 -35 40 -35 29
0 40 -4 40 -15 0 -11 -11 -15 -39 -15 -40 0 -40 0 -43 -42 -2 -24 -7 -43 -13
-43 -6 0 -11 45 -13 108 l-3 108 57 -3 c35 -2 59 -8 62 -15z m223 -12 c25 -25
29 -37 29 -81 0 -44 -4 -56 -29 -81 -22 -21 -39 -29 -66 -29 -27 0 -44 8 -66
29 -25 25 -29 37 -29 81 0 44 4 56 29 81 22 21 39 29 66 29 27 0 44 -8 66 -29z
m134 -79 c0 -140 -19 -139 -23 1 -2 85 0 108 10 105 9 -3 13 -32 13 -106z
m339 97 c27 -13 56 -64 56 -99 0 -38 -30 -88 -61 -100 -45 -19 -96 -5 -119 33
-60 97 25 211 124 166z m274 -74 c3 -88 12 -105 52 -105 40 0 49 17 52 103 4
104 22 104 26 -1 3 -76 1 -84 -22 -107 -31 -31 -74 -32 -110 -4 -25 19 -26 25
-26 111 0 67 3 89 13 86 8 -3 13 -31 15 -83z m250 -13 l3 -92 45 0 c69 0 52
-24 -19 -28 l-57 -3 0 111 c0 85 3 111 13 108 8 -3 13 -34 15 -96z m289 81 c3
-7 -9 -13 -29 -15 l-33 -3 -3 -93 c-2 -68 -6 -92 -15 -89 -8 2 -13 35 -15 95
l-3 92 -29 0 c-20 0 -30 5 -30 15 0 13 13 15 77 13 48 -2 78 -7 80 -15z m93
-94 c0 -84 -3 -110 -12 -107 -9 3 -14 34 -16 98 -3 97 0 120 18 120 6 0 10
-41 10 -111z m164 28 c16 -43 33 -74 36 -70 4 5 17 35 30 68 27 70 37 85 57
85 11 0 13 -20 11 -107 -3 -125 -21 -145 -28 -33 l-5 75 -25 -68 c-34 -96 -45
-101 -74 -36 -13 30 -27 65 -32 79 -7 20 -10 10 -14 -50 -3 -41 -9 -75 -15
-75 -11 0 -20 178 -10 202 13 34 41 6 69 -70z m369 62 c85 -66 32 -212 -71
-196 -53 9 -82 46 -82 105 0 28 7 57 16 70 31 45 96 54 137 21z m-1513 -447
c0 -19 -30 -27 -52 -13 -15 9 -23 9 -34 0 -11 -9 -14 -8 -14 3 0 23 8 27 56
25 28 -1 44 -7 44 -15z m-711 -110 c15 -39 28 -72 31 -72 3 0 16 32 30 71 21
62 41 91 55 77 2 -2 -13 -50 -33 -106 -47 -130 -59 -132 -99 -14 -17 48 -34
95 -38 106 -6 14 -4 17 11 14 12 -2 26 -25 43 -76z m301 63 c0 -11 -12 -15
-45 -15 -43 0 -45 -1 -45 -30 0 -29 2 -30 46 -30 41 0 45 -2 33 -16 -8 -10
-24 -14 -46 -12 -31 4 -33 2 -33 -28 0 -31 2 -33 42 -36 23 -2 43 -9 46 -15 3
-10 -13 -13 -57 -13 l-61 0 0 105 0 105 60 0 c47 0 60 -3 60 -15z m176 9 c42
-11 51 -73 15 -100 -12 -10 -11 -18 13 -58 24 -42 25 -46 8 -46 -11 0 -27 16
-41 40 -14 25 -29 40 -42 40 -16 0 -19 -7 -19 -40 0 -29 -4 -40 -15 -40 -12 0
-15 18 -15 105 l0 105 38 0 c20 0 47 -3 58 -6z m237 -93 c42 -111 42 -111 23
-111 -8 0 -19 14 -25 30 -9 27 -14 30 -51 30 -37 0 -42 -3 -51 -30 -6 -16 -17
-30 -25 -30 -8 0 -14 2 -14 5 0 7 68 184 76 196 15 24 32 1 67 -90z m257 74
c15 -16 24 -41 28 -73 4 -41 0 -52 -23 -80 -22 -27 -34 -32 -69 -32 -23 0 -51
7 -63 15 -47 33 -48 141 -2 178 33 26 100 23 129 -8z m361 -4 c24 -24 29 -38
29 -76 0 -38 -5 -52 -29 -76 -26 -25 -37 -29 -85 -29 l-56 0 0 105 0 105 56 0
c48 0 59 -4 85 -29z m229 14 c0 -11 -12 -15 -45 -15 -43 0 -45 -1 -45 -30 0
-29 2 -30 45 -30 48 0 61 -16 22 -25 -13 -4 -27 -5 -33 -4 -25 4 -34 -4 -34
-31 0 -29 2 -30 45 -30 33 0 45 -4 45 -15 0 -12 -13 -15 -60 -15 l-60 0 0 105
0 105 60 0 c47 0 60 -3 60 -15z m110 -75 l0 -90 45 0 c33 0 45 -4 45 -15 0
-12 -13 -15 -60 -15 l-60 0 0 105 c0 87 3 105 15 105 12 0 15 -17 15 -90z
m280 75 c0 -11 -12 -15 -45 -15 -43 0 -45 -1 -45 -30 0 -28 2 -30 40 -30 22 0
40 -4 40 -10 0 -12 -45 -24 -65 -16 -12 4 -15 -3 -15 -29 0 -33 2 -34 42 -37
23 -2 43 -9 46 -15 3 -10 -13 -13 -57 -13 l-61 0 0 105 0 105 60 0 c47 0 60
-3 60 -15z m188 -3 c3 -10 -4 -13 -24 -11 -51 4 -64 0 -64 -20 0 -12 15 -28
42 -43 56 -31 67 -51 48 -85 -23 -41 -116 -51 -128 -14 -4 11 4 12 32 7 39 -8
76 6 76 29 0 8 -19 24 -42 36 -24 12 -46 27 -50 33 -14 21 -8 65 10 75 23 15
94 9 100 -7z m228 -92 c2 -111 -7 -145 -39 -154 -39 -10 -51 13 -14 29 25 12
24 5 26 136 1 76 4 100 14 96 8 -2 12 -34 13 -107z m114 33 c0 -81 14 -113 51
-113 37 0 49 27 49 111 0 64 3 79 15 79 12 0 15 -16 15 -85 0 -102 -15 -125
-80 -125 -65 0 -80 23 -80 125 0 69 3 85 15 85 12 0 15 -15 15 -77z m307 -6
l52 -82 1 83 c0 66 3 82 15 82 12 0 15 -18 15 -105 0 -134 -13 -138 -85 -28
l-50 77 -3 -77 c-2 -59 -6 -77 -17 -77 -12 0 -15 20 -15 105 0 136 13 139 87
22z m303 68 c0 -10 -10 -15 -34 -15 l-35 0 1 -87 c0 -73 -2 -89 -16 -91 -14
-3 -16 9 -16 87 l0 91 -30 0 c-20 0 -30 5 -30 15 0 12 16 15 80 15 64 0 80 -3
80 -15z m213 -5 c34 -27 45 -95 23 -138 -20 -39 -44 -52 -94 -52 -58 0 -87 35
-87 107 0 48 4 58 28 79 36 31 94 32 130 4z m225 1 c4 -11 -3 -13 -29 -9 -44
7 -59 1 -59 -23 0 -11 13 -25 33 -35 69 -35 86 -74 48 -108 -23 -21 -112 -19
-119 3 -4 11 3 12 32 7 39 -8 76 6 76 29 0 8 -22 26 -50 40 -45 23 -50 29 -50
58 0 18 6 39 12 45 17 17 100 11 106 -7z m117 -161 c8 -13 -14 -42 -26 -34 -5
3 -9 14 -9 25 0 20 24 26 35 9z m113 -13 c2 -12 -3 -17 -17 -17 -12 0 -21 6
-21 13 0 31 32 34 38 4z m115 9 c6 -16 -16 -40 -26 -29 -4 3 -7 15 -7 25 0 21
25 24 33 4z m-3518 -1048 c54 -117 120 -258 146 -313 79 -169 129 -277 129
-281 0 -2 -26 -4 -58 -4 l-57 0 -57 120 -56 120 -194 0 -194 0 -50 -117 c-45
-106 -53 -118 -77 -121 -15 -2 -27 0 -27 5 0 4 75 187 167 406 l167 397 31 0
c31 0 33 -2 130 -212z m1095 72 l0 -90 70 0 c68 0 70 -1 70 -25 0 -24 -2 -25
-70 -25 l-70 0 0 -218 c0 -239 3 -254 55 -254 20 0 36 8 51 27 22 28 22 28 48
9 34 -25 32 -40 -6 -64 -100 -61 -219 -14 -247 95 -6 24 -11 125 -11 224 l0
180 -47 3 c-40 3 -48 6 -48 23 0 17 8 20 48 23 l47 3 0 83 c0 45 3 86 7 89 3
4 28 7 55 7 l48 0 0 -90z m-347 -113 c69 -52 72 -65 75 -324 l3 -233 -49 0
-50 0 -4 218 c-4 246 -10 271 -76 299 -69 29 -148 0 -183 -68 -17 -34 -19 -60
-19 -244 l0 -206 -52 3 -53 3 0 285 0 285 53 3 52 3 0 -30 c0 -36 10 -39 36
-10 33 37 73 49 155 47 65 -3 81 -7 112 -31z m899 23 c98 -28 172 -129 184
-252 l7 -68 -222 0 -221 0 6 -42 c24 -167 206 -231 344 -122 l44 35 20 -21 21
-21 -30 -25 c-67 -55 -113 -69 -220 -69 -91 0 -104 3 -146 27 -96 56 -149 154
-149 273 0 100 50 208 116 251 62 42 167 56 246 34z m543 -9 c49 -22 95 -74
95 -107 0 -20 -5 -24 -29 -24 -23 0 -33 7 -43 27 -7 15 -29 38 -48 51 -29 20
-44 23 -88 20 -68 -6 -102 -35 -102 -89 0 -49 24 -66 155 -109 82 -27 108 -41
143 -75 40 -40 42 -45 42 -102 0 -112 -72 -173 -206 -173 -113 0 -191 38 -230
112 -24 46 -19 58 24 58 34 0 40 -4 53 -32 51 -116 270 -113 269 4 -1 57 -28
77 -167 123 -44 15 -97 40 -117 56 -86 71 -66 213 37 259 56 26 157 26 212 1z
m2204 -1265 c79 -80 81 -83 63 -99 -18 -17 -23 -15 -100 33 -45 27 -84 50 -86
50 -3 0 -42 -23 -86 -51 -66 -42 -83 -49 -95 -39 -8 7 -15 18 -15 25 0 18 160
162 185 167 36 7 51 -2 134 -86z m-4206 46 c130 -64 216 -179 239 -318 21
-127 -29 -262 -136 -362 l-64 -60 49 -48 c27 -26 49 -51 49 -55 0 -4 -19 -14
-42 -23 l-41 -17 -56 55 c-55 54 -57 55 -96 46 -60 -14 -164 -12 -230 5 -83
22 -147 60 -206 122 -212 224 -115 581 186 680 26 8 82 12 160 10 114 -2 124
-4 188 -35z m1992 -52 c18 -41 79 -187 135 -324 l104 -248 16 33 c10 19 70
166 135 327 117 291 118 292 147 292 27 0 29 -3 24 -23 -4 -19 -270 -682 -306
-765 -8 -19 -16 -23 -46 -20 l-36 3 -159 380 c-88 209 -162 390 -165 403 -6
22 -5 23 56 20 l63 -3 32 -75z m-689 -164 c94 -44 160 -154 152 -258 l-3 -43
-212 -3 -213 -2 0 -31 c0 -38 24 -97 53 -127 70 -76 190 -78 288 -6 l46 34 19
-21 c19 -21 18 -21 -11 -45 -75 -61 -209 -90 -301 -65 -97 26 -173 107 -200
212 -39 152 24 303 150 360 61 28 167 25 232 -5z m1719 0 c59 -27 119 -90 148
-155 23 -52 27 -152 8 -218 -24 -88 -113 -171 -205 -194 -65 -16 -162 -7 -214
20 -141 72 -203 256 -136 401 54 116 137 168 274 169 59 1 86 -4 125 -23z
m638 8 c47 -16 117 -81 117 -109 0 -11 -11 -15 -39 -15 -30 0 -42 5 -55 25
-39 59 -126 82 -199 51 -41 -17 -91 -73 -108 -123 -22 -61 -17 -190 9 -240 23
-44 70 -85 111 -98 65 -20 203 7 226 45 8 14 45 -15 45 -36 0 -7 -30 -28 -67
-46 -61 -30 -76 -33 -158 -33 -75 0 -97 4 -135 24 -61 32 -97 67 -128 126 -24
45 -27 61 -27 150 0 92 2 104 29 153 33 59 85 105 143 127 52 19 179 19 236
-1z m543 -8 c94 -44 154 -144 154 -258 l0 -48 -215 0 -215 0 0 -30 c0 -62 45
-137 100 -165 41 -21 115 -28 157 -15 21 7 58 28 82 46 45 34 45 34 65 15 19
-20 19 -21 1 -41 -35 -39 -122 -73 -198 -78 -87 -5 -140 8 -203 51 -62 41
-111 133 -120 223 -14 133 61 269 167 307 69 24 164 21 225 -7z m-3764 -203
c3 -242 10 -269 68 -293 45 -19 125 -8 157 21 48 45 53 73 53 289 l0 200 50 0
50 0 0 -290 0 -290 -50 0 -50 0 0 36 0 36 -32 -28 c-46 -38 -89 -54 -148 -54
-88 0 -149 35 -181 105 -16 35 -19 68 -19 263 l0 222 49 0 50 0 3 -217z m-118
-989 c9 -8 16 -28 16 -44 0 -36 -23 -60 -58 -60 -61 0 -87 59 -49 108 13 17
73 15 91 -4z m-501 -9 c126 -33 208 -99 264 -213 36 -72 38 -81 38 -171 0 -87
-3 -102 -32 -163 -38 -81 -105 -155 -171 -191 -79 -43 -159 -57 -334 -57
l-158 0 0 405 0 405 168 0 c117 0 185 -5 225 -15z m2595 -92 c46 -98 106 -226
167 -358 13 -27 53 -113 88 -190 36 -77 63 -143 61 -147 -3 -5 -28 -8 -55 -8
l-51 0 -56 120 -57 120 -195 0 -195 0 -51 -117 c-45 -105 -54 -118 -77 -121
-15 -2 -27 1 -27 7 0 6 40 104 88 219 49 114 124 291 168 395 78 186 79 187
110 187 29 0 33 -5 82 -107z m900 -295 l-3 -403 -50 0 -50 0 -3 38 -3 37 -25
-29 c-77 -92 -267 -74 -349 33 -61 81 -82 221 -48 326 21 65 89 142 145 165
87 35 214 14 258 -43 l20 -25 0 152 0 151 55 0 55 0 -2 -402z m-2488 160 c19
-11 39 -27 45 -37 8 -13 10 -11 15 14 5 28 8 30 58 33 l53 3 -4 -333 c-2 -232
-7 -345 -16 -372 -54 -166 -304 -210 -456 -82 l-30 26 35 30 c19 16 37 29 40
29 3 0 14 -14 25 -32 11 -17 36 -42 55 -55 29 -20 44 -23 93 -20 109 8 147 61
147 206 l0 94 -31 -31 c-83 -83 -264 -60 -344 45 -111 145 -69 404 78 481 70
36 175 36 237 1z m628 5 c42 -20 79 -64 92 -111 5 -20 10 -133 10 -250 l0
-213 -47 3 c-40 3 -48 6 -51 25 l-3 21 -52 -26 c-42 -22 -64 -27 -127 -27 -67
0 -82 4 -118 28 -68 45 -104 137 -83 215 12 45 46 90 91 122 63 45 180 43 252
-5 l38 -25 0 47 c0 115 -37 165 -123 167 -61 0 -109 -25 -143 -76 -23 -34 -29
-34 -60 -5 -30 28 -30 38 -1 64 73 67 230 89 325 46z m3471 -6 c49 -25 79 -60
83 -97 3 -21 -1 -24 -29 -25 -27 0 -35 5 -45 29 -17 42 -63 66 -126 66 -46 0
-58 -4 -83 -29 -36 -36 -39 -81 -7 -110 11 -11 70 -37 130 -57 134 -44 182
-83 193 -154 5 -33 2 -58 -10 -88 -34 -84 -108 -118 -233 -109 -112 8 -196 67
-204 143 -3 27 0 29 32 32 33 3 37 0 53 -37 25 -56 76 -86 149 -86 82 0 113
25 113 91 0 43 -3 50 -33 70 -18 13 -65 32 -105 45 -94 28 -137 53 -164 92
-30 44 -33 123 -7 168 49 83 185 109 293 56z m-1134 2 c64 -30 121 -96 140
-163 18 -62 17 -140 -2 -142 -7 -1 -103 -2 -213 -3 l-200 -1 0 -30 c0 -39 24
-98 53 -128 36 -38 77 -54 141 -55 63 -1 107 16 169 65 25 20 28 21 43 6 22
-22 13 -42 -34 -72 -129 -81 -287 -74 -390 19 -65 58 -95 126 -96 220 -2 133
49 231 145 279 70 34 177 37 244 5z m-3465 -279 l0 -290 -50 0 -50 0 0 290 0
290 50 0 50 0 0 -290z m3810 85 c0 -221 6 -257 52 -295 32 -27 112 -26 156 0
62 38 72 79 72 303 l0 197 50 0 50 0 0 -290 0 -290 -50 0 -50 0 0 35 0 35 -45
-34 c-50 -39 -109 -52 -179 -42 -60 9 -107 42 -133 96 -22 42 -23 56 -23 267
l0 223 50 0 50 0 0 -205z m418 -4868 c29 -74 52 -137 52 -140 0 -4 -8 -7 -19
-7 -13 0 -24 14 -35 45 -18 45 -18 45 -67 45 -49 0 -50 0 -69 -45 -11 -25 -26
-45 -35 -45 -8 0 -15 4 -15 9 0 5 23 68 51 140 37 95 56 131 68 131 12 0 31
-36 69 -133z m268 26 l69 -107 3 108 c2 95 5 107 20 104 15 -3 17 -19 17 -138
0 -130 -1 -135 -21 -138 -15 -2 -27 7 -42 30 -11 18 -43 69 -71 113 l-51 79 0
-112 c0 -93 -3 -112 -15 -112 -13 0 -15 22 -15 140 0 181 8 183 106 33z m403
-20 c28 -71 51 -134 51 -140 0 -30 -31 -9 -49 32 -20 45 -20 45 -69 45 -50 0
-50 0 -69 -45 -12 -30 -24 -45 -37 -45 -13 0 -16 5 -12 18 81 213 102 262 117
262 12 0 31 -37 68 -127z m427 13 l41 -108 43 111 c41 106 44 111 71 111 l29
0 0 -140 c0 -133 -1 -140 -20 -140 -19 0 -20 7 -20 113 l-1 112 -43 -110 c-32
-81 -48 -110 -61 -110 -13 0 -28 28 -59 110 l-41 110 -3 -112 c-2 -91 -5 -113
-17 -113 -13 0 -15 24 -15 141 l0 140 27 -3 c25 -3 31 -13 69 -112z m505 97
c31 -19 59 -76 59 -123 0 -47 -28 -104 -59 -123 -36 -21 -102 -22 -140 -2 -79
40 -80 208 -2 250 36 19 107 19 142 -2z m333 -4 c36 -28 37 -89 2 -116 l-24
-19 34 -57 c19 -32 34 -60 34 -62 0 -3 -9 -5 -19 -5 -13 0 -30 18 -51 55 -27
47 -36 55 -61 55 -29 0 -29 -1 -29 -56 0 -46 -3 -55 -16 -52 -14 2 -17 23 -20
131 -3 71 -2 132 1 138 4 5 32 9 64 9 44 0 65 -5 85 -21z m309 -101 c26 -68
50 -131 53 -140 4 -13 1 -18 -12 -18 -13 0 -25 15 -37 45 -19 45 -19 45 -68
45 -49 0 -50 0 -69 -45 -11 -25 -26 -45 -35 -45 -8 0 -15 4 -15 9 0 5 23 68
51 140 38 96 56 131 68 131 13 0 30 -33 64 -122z m315 105 c-3 -14 -14 -18
-48 -20 -25 -1 -51 -2 -58 -2 -9 -1 -12 -13 -10 -38 l3 -38 58 -3 c42 -2 57
-7 57 -17 0 -12 -14 -15 -60 -15 l-60 0 0 -45 0 -45 60 0 c53 0 60 -2 60 -20
0 -18 -7 -20 -74 -20 l-75 0 -3 88 c-2 48 -2 111 0 140 l3 52 75 0 c67 0 75
-2 72 -17z m266 11 c9 -3 16 -13 16 -21 0 -12 -8 -13 -40 -8 -57 10 -80 0 -80
-35 0 -23 7 -31 48 -50 26 -12 55 -29 65 -38 25 -22 21 -68 -8 -98 -22 -22
-32 -25 -87 -22 -52 2 -63 6 -66 22 -4 16 1 17 46 11 61 -8 92 5 92 40 0 21
-10 29 -52 49 -29 12 -59 30 -67 40 -21 25 -16 78 10 98 21 18 91 24 123 12z"/>
<path d="M1256 10878 c-9 -12 -16 -38 -16 -58 0 -51 24 -80 65 -80 42 0 65 29
65 82 0 69 -78 107 -114 56z"/>
<path d="M1757 10883 c-32 -36 -29 -113 6 -135 20 -13 65 -9 81 8 23 23 21
106 -2 127 -24 22 -65 22 -85 0z"/>
<path d="M3180 10880 c-13 -13 -20 -33 -20 -60 0 -49 27 -80 69 -80 39 0 61
32 61 87 0 32 -5 46 -22 57 -31 22 -64 20 -88 -4z"/>
<path d="M1470 10366 c0 -31 3 -36 23 -36 33 0 49 15 45 41 -2 19 -10 25 -35
27 -32 3 -33 2 -33 -32z"/>
<path d="M1701 10340 c-10 -29 -9 -30 19 -30 28 0 29 1 19 30 -6 17 -15 30
-19 30 -4 0 -13 -13 -19 -30z"/>
<path d="M1945 10402 c-30 -6 -45 -31 -45 -77 0 -48 15 -71 51 -80 35 -9 68
21 76 67 9 60 -27 101 -82 90z"/>
<path d="M2280 10325 l0 -75 35 0 c22 0 43 8 55 20 12 12 20 33 20 55 0 22 -8
43 -20 55 -12 12 -33 20 -55 20 l-35 0 0 -75z"/>
<path d="M4271 10397 c-45 -22 -49 -113 -7 -142 27 -20 49 -19 77 3 17 15 22
29 22 66 0 66 -41 99 -92 73z"/>
<path d="M1177 9083 l-75 -178 160 -3 c89 -1 163 -1 165 1 2 2 -29 73 -68 158
-94 205 -91 199 -99 199 -4 0 -41 -80 -83 -177z"/>
<path d="M2921 9135 c-19 -9 -40 -23 -48 -33 -23 -28 -50 -94 -57 -139 -8 -54
-6 -55 179 -51 l140 3 -1 52 c-3 124 -114 212 -213 168z"/>
<path d="M1327 7930 c-61 -16 -110 -45 -156 -95 -77 -84 -108 -194 -90 -323
25 -177 145 -292 304 -292 39 0 80 3 93 6 23 7 23 7 -15 46 l-38 39 30 25 c17
13 34 24 40 24 5 0 29 -19 53 -42 l44 -43 38 43 c100 111 124 290 57 434 -60
132 -222 212 -360 178z"/>
<path d="M2740 7709 c-61 -25 -110 -110 -110 -191 l0 -28 163 0 164 0 -9 57
c-11 69 -40 124 -77 146 -37 21 -100 29 -131 16z"/>
<path d="M4410 7691 c-70 -39 -108 -142 -97 -267 13 -148 93 -227 212 -210 62
10 103 40 128 94 18 38 22 66 22 152 0 92 -3 111 -25 154 -35 69 -66 89 -143
93 -47 2 -70 -1 -97 -16z"/>
<path d="M5640 7709 c-61 -24 -110 -110 -110 -191 l0 -28 160 0 160 0 0 43 c0
67 -42 141 -94 166 -46 23 -77 25 -116 10z"/>
<path d="M1140 6149 l0 -352 113 5 c132 6 201 32 262 100 63 69 88 138 89 243
0 80 -3 97 -30 155 -66 139 -179 200 -376 200 l-58 0 0 -351z"/>
<path d="M3891 6370 c-11 -25 -46 -108 -79 -185 l-60 -140 160 -3 c89 -1 163
0 165 2 5 4 -37 99 -120 276 l-45 95 -21 -45z"/>
<path d="M4583 6250 c-128 -65 -134 -355 -9 -431 42 -26 119 -25 162 1 55 34
74 89 74 211 0 89 -3 111 -22 149 -13 24 -35 52 -49 63 -41 29 -106 32 -156 7z"/>
<path d="M2280 6263 c-27 -10 -71 -57 -93 -98 -32 -61 -30 -202 4 -270 33 -66
77 -95 143 -95 66 0 107 25 135 84 20 41 22 58 19 164 -3 111 -5 121 -31 159
-15 22 -39 45 -53 52 -25 11 -97 14 -124 4z"/>
<path d="M2849 6057 c-106 -70 -85 -236 33 -268 52 -13 95 1 143 48 36 35 37
37 33 99 -3 50 -9 69 -28 90 -55 58 -123 70 -181 31z"/>
<path d="M5224 6276 c-56 -25 -104 -111 -104 -188 l0 -28 164 0 163 0 -4 43
c-2 23 -16 66 -30 96 -20 42 -34 57 -67 72 -48 22 -80 23 -122 5z"/>
<path d="M6071 1283 c-7 -21 -15 -44 -17 -50 -4 -9 6 -13 35 -13 l41 0 -17 43
c-23 60 -28 62 -42 20z"/>
<path d="M6751 1297 c-6 -15 -14 -39 -17 -52 -6 -23 -3 -25 31 -25 40 0 40 3
10 75 l-13 30 -11 -28z"/>
<path d="M7633 1326 c-25 -22 -28 -31 -28 -86 0 -55 3 -64 28 -86 16 -13 41
-24 57 -24 16 0 41 11 57 24 25 22 28 31 28 86 0 55 -3 64 -28 86 -16 13 -41
24 -57 24 -16 0 -41 -11 -57 -24z"/>
<path d="M7987 1343 c-4 -3 -7 -26 -7 -50 l0 -43 38 0 c45 0 62 14 62 52 0 21
-6 31 -26 38 -29 12 -58 13 -67 3z"/>
<path d="M8321 1283 c-7 -21 -15 -44 -17 -50 -4 -9 6 -13 35 -13 l41 0 -17 43
c-23 60 -28 62 -42 20z"/>
</g>
</svg>
